PathFileType	4	(X/Y/Z)	Patient4_TMGait_0pt5_02_left_23.trc.trc
DataRate	CameraRate	NumFrames	NumMarkers	Units	OrigDataRate	OrigDataStartFrame	OrigNumFrames
76.502732240437	76.502732240437	4	33	mm	76.502732240437	1	       141
Frame#	Time	Sacral			L.Shoulder			Chest			R.Shoulder			Neck			R.ASIS			L.ASIS			R.Thigh.Superior			R.Thigh.Lateral			R.Thigh.Inferior			R.Patella			L.Thigh.Superior			L.Thigh.Lateral			L.Thigh.Inferior			L.Patella			L.Shank.Superior			L.Shank.Lateral			L.Shank.Inferior			R.Shank.Superior			R.Shank.Lateral			R.Shank.Inferior			R.Heel			R.Midfoot.Superior			R.Midfoot.Lateral			R.Toe			L.Heel			L.Midfoot.Lateral			L.Midfoot.Superior			L.Toe			L.Elbow			L.Wrist			R.Elbow			R.Wrist			
		X1	Y1	Z1	X2	Y2	Z2	X3	Y3	Z3	X4	Y4	Z4	X5	Y5	Z5	X6	Y6	Z6	X7	Y7	Z7	X8	Y8	Z8	X9	Y9	Z9	X10	Y10	Z10	X11	Y11	Z11	X12	Y12	Z12	X13	Y13	Z13	X14	Y14	Z14	X15	Y15	Z15	X16	Y16	Z16	X17	Y17	Z17	X18	Y18	Z18	X19	Y19	Z19	X20	Y20	Z20	X21	Y21	Z21	X22	Y22	Z22	X23	Y23	Z23	X24	Y24	Z24	X25	Y25	Z25	X26	Y26	Z26	X27	Y27	Z27	X28	Y28	Z28	X29	Y29	Z29	X30	Y30	Z30	X31	Y31	Z31	X32	Y32	Z32	X33	Y33	Z33	

1	29.280000000000	464.664153148463	1010.731123776347	520.113547216649	646.248802437992	1439.707735749820	342.961012579641	752.200096484226	1365.589773212527	500.674127815271	673.135471643031	1439.303778352342	678.041821372885	651.375066856398	1496.988945697363	495.976591527948	693.402124690394	941.461286801414	631.274413431589	673.158289474770	964.804741831546	358.635974533457	731.686555664390	740.208204596474	602.729305116629	646.565014168663	633.569419886430	658.457053272026	723.420720794619	580.203944561357	577.975878743134	721.272620203844	492.569371852512	581.047246714744	753.489533199442	779.045391758251	387.206970450985	707.791579827244	655.005641019535	309.296974418586	810.074866930887	590.859305575315	371.215971056427	822.725157658420	500.775764762548	364.043032581184	757.290028666155	433.516363193708	356.740582971939	616.957743015561	386.529788321643	308.767749911845	608.850656354843	256.912601646886	363.431604231081	694.308008953030	404.547410358776	587.073345789816	622.365839650003	300.158514869174	646.261893091453	663.675026694612	206.174912755609	581.684518604007	528.053396407785	42.579688764799	548.431467652735	699.065429924136	96.983451378841	586.797851288215	610.653234195065	36.214715498023	624.232965592154	819.135230588704	42.819477043146	616.005810731304	419.463787504306	187.695843021781	401.882998168379	477.117810823645	145.063848013408	319.787459470716	582.599172831861	152.690625666570	340.088158741523	660.636313058445	41.330001365080	308.199733250061	567.826405031090	1094.359685447502	224.410738131996	605.523341564138	834.777049681525	217.016159205614	669.687321169895	1103.430804348552	818.091984269338	886.324105564209	961.639095713443	803.661446738507	
2	29.293071428571	463.520988332388	1011.416348719816	521.690071881657	644.533445371159	1439.881911358503	343.800038612777	751.807854861145	1365.441980682494	500.424703641603	674.850674128637	1439.489278419988	678.523680272233	651.270653037224	1497.137744256081	496.649026334554	692.662687672971	941.279477490484	631.365768697245	671.150936294710	965.421669023205	358.901393926468	728.730881137677	739.539541164684	601.981132276840	643.481794504673	633.454308053150	658.645730771592	719.136426981079	579.546812340713	577.637434228584	716.373192677349	492.028734072325	580.955015384734	753.070566969583	781.613510346062	387.716334998777	708.802339245529	657.003523448868	309.771183635916	811.379946032849	594.018957421864	371.971873463942	825.736241242967	505.196020639301	364.622235613289	763.916505941583	436.414856422852	356.462752793261	627.146765348421	381.862520564408	308.356135793451	627.296352034751	252.101771803546	362.014789899719	688.946971224494	404.091690605550	586.987269476594	616.702429906068	300.095394261410	646.344048552298	657.405182699026	205.959348372256	581.663474353960	521.198111917352	42.546304914965	548.371935104271	692.172575232021	96.942188276432	586.921461743635	603.697442288453	36.199587043209	624.263305384355	812.201142589569	42.638155521216	616.086344923341	443.998983076176	170.939915209203	400.673097837894	503.264059515471	133.369258030607	317.813314148631	607.441422893161	147.641237196600	337.760186038953	691.906219397447	42.807196321825	304.148986255897	560.162058753496	1095.849353208081	226.473659710121	590.895740238120	835.724966502049	219.803068038488	678.112519603046	1104.377595704442	818.806867802745	900.521574928476	976.276285355330	799.157036950609	
3	29.306142857143	462.399075421236	1012.075699173320	523.230868937041	642.834892337711	1440.068328728414	344.633341544674	751.416627445473	1365.284024301957	500.162649915878	676.536526426337	1439.625955602227	678.993867594195	651.163976820312	1497.269084599466	497.331793565047	691.947268063081	941.106188228522	631.421554022653	669.164986932537	965.999138399307	359.112467588184	725.822991341375	738.872929897557	601.261230040387	640.410434572793	633.335980830117	658.832465771983	714.894609957330	578.889494018800	577.325032481287	711.513601733622	491.492848311261	580.874513647645	752.546513385728	784.028918376636	388.189211794748	709.620674901545	658.874401529633	310.201192170744	812.423023588754	596.985030968893	372.727824108046	828.495133479265	509.492733187189	365.187476128887	770.325157591231	439.251428161621	356.205530631041	637.348256254279	377.119950921544	307.854701749509	645.738607364758	247.380265312593	360.626936698724	683.633629041151	403.646361243063	586.911471807523	611.081380046574	300.033430337613	646.426427739452	651.180355441283	205.743161562227	581.643743616864	514.384649478667	42.519548950965	548.321023321781	685.326901083668	96.899499488324	587.040186924531	596.792730719723	36.184353501496	624.289084584600	805.315698928696	42.452107925330	616.167285542799	468.724540164992	154.351657518552	399.345489011032	529.645542025434	121.826101746108	315.843175810371	632.369203904256	142.747351658413	335.551434958976	723.206064610028	44.536846557552	300.456091646426	552.543588913170	1097.383713779916	228.512274192553	576.573762510455	836.747944042518	222.581455399624	686.520446146960	1105.270185962457	819.438450669693	914.462606181734	990.845956278779	794.564805087099	
4	29.319214285714	461.326655732380	1012.678613466980	524.695032878712	641.174318022418	1440.273550810169	345.443037490541	751.025590285779	1365.108025396268	499.872420822441	678.153749611401	1439.675012516344	679.431316308691	651.050012621432	1497.366607800183	498.019155902196	691.274731227683	940.944554861019	631.397909504661	667.226942355503	966.499943687890	359.220384207956	723.010508459966	738.210753904335	600.588937046291	637.368036984221	633.210952832834	659.007934806918	710.736269301440	578.231584217657	577.053227629897	706.733167420533	490.964220285045	580.808476741361	751.821914951313	786.141487750035	388.588649075131	710.083276846717	660.502116810170	310.535997366739	812.985523582966	599.577507459632	373.465622537735	830.768011713112	513.533193793715	365.722987872683	776.298407349337	441.965565849767	355.977878561995	647.515877303505	372.290283935788	307.209110324747	664.077048847356	242.888625368883	359.301923511776	678.409105581976	403.218011495318	586.847989820072	605.539618168650	299.974670302732	646.504962732991	645.038798932998	205.526439653275	581.624067006375	507.645947327538	42.506450220128	548.285240799432	678.565619191040	96.853304741626	587.145197791378	589.979300368406	36.170143480528	624.307634051490	798.517254323862	42.259688011541	616.247932345379	493.691138208025	138.219549577945	397.849886433088	556.315364436150	110.683437283386	313.912416726716	657.312837931141	138.218210139071	333.565811194618	754.363899764911	46.782968771714	297.400304893633	545.045280385888	1098.991802100724	230.491420292977	562.878111292845	837.901113217303	225.324633689742	694.884455286914	1106.070510746120	819.876245817047	927.867151139983	1005.263567551596	789.787942745817	
